G75*
%MOIN*%
%OFA0B0*%
%FSLAX24Y24*%
%IPPOS*%
%LPD*%
%AMOC8*
5,1,8,0,0,1.08239X$1,22.5*
%
%ADD10C,0.0098*%
%ADD11C,0.0100*%
%ADD12C,0.0640*%
%ADD13OC8,0.0600*%
%ADD14C,0.0740*%
%ADD15OC8,0.0480*%
%ADD16C,0.0531*%
%ADD17C,0.0120*%
%ADD18C,0.0060*%
%ADD19C,0.0270*%
D10*
X001077Y000600D02*
X015277Y000600D01*
X015777Y001100D02*
X015777Y015300D01*
X015277Y015800D02*
X001077Y015800D01*
X000577Y015300D02*
X000577Y001100D01*
X000579Y001056D01*
X000585Y001013D01*
X000594Y000971D01*
X000607Y000929D01*
X000624Y000889D01*
X000644Y000850D01*
X000667Y000813D01*
X000694Y000779D01*
X000723Y000746D01*
X000756Y000717D01*
X000790Y000690D01*
X000827Y000667D01*
X000866Y000647D01*
X000906Y000630D01*
X000948Y000617D01*
X000990Y000608D01*
X001033Y000602D01*
X001077Y000600D01*
D11*
X015277Y000600D02*
X015321Y000602D01*
X015364Y000608D01*
X015406Y000617D01*
X015448Y000630D01*
X015488Y000647D01*
X015527Y000667D01*
X015564Y000690D01*
X015598Y000717D01*
X015631Y000746D01*
X015660Y000779D01*
X015687Y000813D01*
X015710Y000850D01*
X015730Y000889D01*
X015747Y000929D01*
X015760Y000971D01*
X015769Y001013D01*
X015775Y001056D01*
X015777Y001100D01*
X015777Y015300D02*
X015775Y015344D01*
X015769Y015387D01*
X015760Y015429D01*
X015747Y015471D01*
X015730Y015511D01*
X015710Y015550D01*
X015687Y015587D01*
X015660Y015621D01*
X015631Y015654D01*
X015598Y015683D01*
X015564Y015710D01*
X015527Y015733D01*
X015488Y015753D01*
X015448Y015770D01*
X015406Y015783D01*
X015364Y015792D01*
X015321Y015798D01*
X015277Y015800D01*
X001077Y015800D02*
X001033Y015798D01*
X000990Y015792D01*
X000948Y015783D01*
X000906Y015770D01*
X000866Y015753D01*
X000827Y015733D01*
X000790Y015710D01*
X000756Y015683D01*
X000723Y015654D01*
X000694Y015621D01*
X000667Y015587D01*
X000644Y015550D01*
X000624Y015511D01*
X000607Y015471D01*
X000594Y015429D01*
X000585Y015387D01*
X000579Y015344D01*
X000577Y015300D01*
D12*
X001557Y014379D03*
X002557Y014379D03*
X003557Y014379D03*
X003557Y013379D03*
X002557Y013379D03*
X001557Y013379D03*
X001560Y002394D03*
X001560Y001606D03*
D13*
X011477Y013300D03*
X012477Y013300D03*
X013477Y013300D03*
X014477Y013300D03*
X014477Y014300D03*
X013477Y014300D03*
X012477Y014300D03*
X011477Y014300D03*
D14*
X014877Y001400D03*
X007877Y001400D03*
D15*
X006777Y013300D03*
X005777Y013300D03*
D16*
X011077Y003700D03*
D17*
X010511Y003720D02*
X004464Y003720D01*
X004417Y003673D02*
X004417Y000949D01*
X004177Y000949D02*
X004177Y003433D01*
X004224Y003480D02*
X010376Y003480D01*
X010417Y003521D02*
X010417Y003879D01*
X010336Y003960D02*
X004704Y003960D01*
X004657Y003913D02*
X004657Y000949D01*
X004897Y000949D02*
X004897Y004153D01*
X004944Y004200D02*
X010245Y004200D01*
X010245Y004260D02*
X010245Y004124D01*
X010296Y004000D01*
X010511Y003785D01*
X010511Y003615D01*
X010296Y003400D01*
X010245Y003276D01*
X010245Y003140D01*
X010296Y003015D01*
X010392Y002920D01*
X010517Y002868D01*
X010652Y002868D01*
X010777Y002920D01*
X010992Y003134D01*
X011162Y003134D01*
X011376Y002920D01*
X011501Y002868D01*
X011637Y002868D01*
X011762Y002920D01*
X011857Y003015D01*
X011857Y000949D01*
X012097Y000949D02*
X012097Y009870D01*
X011857Y009870D02*
X011857Y004385D01*
X011762Y004480D01*
X011637Y004532D01*
X011501Y004532D01*
X011376Y004480D01*
X011162Y004266D01*
X010992Y004266D01*
X010777Y004480D01*
X010652Y004532D01*
X010517Y004532D01*
X010392Y004480D01*
X010296Y004385D01*
X010245Y004260D01*
X010352Y004440D02*
X005184Y004440D01*
X005137Y004393D02*
X005137Y000949D01*
X005377Y000949D02*
X005377Y004633D01*
X005424Y004680D02*
X014547Y004680D01*
X014547Y004863D02*
X014547Y001989D01*
X014497Y001968D01*
X014309Y001780D01*
X014207Y001533D01*
X014207Y001267D01*
X014309Y001020D01*
X014380Y000949D01*
X008158Y000949D01*
X008222Y000996D01*
X008281Y001055D01*
X008330Y001122D01*
X008368Y001197D01*
X008394Y001276D01*
X008407Y001358D01*
X008407Y001360D01*
X007917Y001360D01*
X007917Y001440D01*
X008407Y001440D01*
X008407Y001442D01*
X008394Y001524D01*
X008368Y001603D01*
X008330Y001678D01*
X008281Y001745D01*
X008222Y001804D01*
X008155Y001853D01*
X008080Y001891D01*
X008001Y001917D01*
X007919Y001930D01*
X007917Y001930D01*
X007917Y001440D01*
X007837Y001440D01*
X007837Y001930D01*
X007835Y001930D01*
X007753Y001917D01*
X007673Y001891D01*
X007599Y001853D01*
X007532Y001804D01*
X007473Y001745D01*
X007424Y001678D01*
X007386Y001603D01*
X007360Y001524D01*
X007347Y001442D01*
X007347Y001440D01*
X007837Y001440D01*
X007837Y001360D01*
X007347Y001360D01*
X007347Y001358D01*
X007360Y001276D01*
X007386Y001197D01*
X007424Y001122D01*
X007473Y001055D01*
X007532Y000996D01*
X007596Y000949D01*
X001077Y000949D01*
X001047Y000952D01*
X000993Y000975D01*
X000951Y001016D01*
X000929Y001071D01*
X000926Y001100D01*
X000926Y015228D01*
X000927Y015230D01*
X000927Y015300D01*
X000930Y015329D01*
X000952Y015383D01*
X000994Y015425D01*
X001048Y015447D01*
X001077Y015450D01*
X001146Y015450D01*
X001148Y015451D01*
X015205Y015451D01*
X015207Y015450D01*
X015277Y015450D01*
X015306Y015447D01*
X015360Y015425D01*
X015402Y015383D01*
X015424Y015329D01*
X015427Y015300D01*
X015427Y015230D01*
X015428Y015228D01*
X015428Y001797D01*
X015256Y001968D01*
X015207Y001989D01*
X015207Y005066D01*
X015157Y005187D01*
X013407Y006937D01*
X013407Y008815D01*
X013446Y008854D01*
X013512Y009013D01*
X013512Y009187D01*
X013446Y009346D01*
X013323Y009469D01*
X013163Y009535D01*
X012990Y009535D01*
X012830Y009469D01*
X012708Y009346D01*
X012642Y009187D01*
X012642Y009013D01*
X012708Y008854D01*
X012747Y008815D01*
X012747Y006734D01*
X012797Y006613D01*
X012890Y006520D01*
X014547Y004863D01*
X014497Y004913D02*
X014497Y001968D01*
X014547Y002040D02*
X002784Y002040D01*
X002737Y001993D02*
X002737Y000949D01*
X002497Y000949D02*
X002497Y001753D01*
X002544Y001800D02*
X007527Y001800D01*
X007537Y001808D02*
X007537Y009870D01*
X007777Y009870D02*
X007777Y001921D01*
X007837Y001800D02*
X007917Y001800D01*
X008017Y001912D02*
X008017Y009870D01*
X008257Y009870D02*
X008257Y001770D01*
X008226Y001800D02*
X014329Y001800D01*
X014257Y001654D02*
X014257Y005153D01*
X014250Y005160D02*
X005904Y005160D01*
X005857Y005113D02*
X005857Y000949D01*
X005617Y000949D02*
X005617Y004873D01*
X005664Y004920D02*
X014490Y004920D01*
X014547Y004440D02*
X011802Y004440D01*
X011857Y004385D02*
X011909Y004260D01*
X011909Y004124D01*
X011857Y004000D01*
X011643Y003785D01*
X011643Y003615D01*
X011857Y003400D01*
X011909Y003276D01*
X011909Y003140D01*
X011857Y003015D01*
X011842Y003000D02*
X014547Y003000D01*
X014547Y002760D02*
X003504Y002760D01*
X003457Y002713D02*
X003457Y000949D01*
X003697Y000949D02*
X003697Y002953D01*
X003744Y003000D02*
X010312Y003000D01*
X010417Y002909D02*
X010417Y000949D01*
X010177Y000949D02*
X010177Y009870D01*
X010417Y009870D02*
X010417Y004491D01*
X010657Y004530D02*
X010657Y009870D01*
X010897Y009870D02*
X010897Y004361D01*
X010818Y004440D02*
X011336Y004440D01*
X011377Y004481D02*
X011377Y009870D01*
X011617Y009870D02*
X011617Y004532D01*
X011909Y004200D02*
X014547Y004200D01*
X014547Y003960D02*
X011818Y003960D01*
X011857Y003999D02*
X011857Y003401D01*
X011778Y003480D02*
X014547Y003480D01*
X014547Y003240D02*
X011909Y003240D01*
X011617Y002868D02*
X011617Y000949D01*
X011377Y000949D02*
X011377Y002919D01*
X011296Y003000D02*
X010858Y003000D01*
X010897Y003039D02*
X010897Y000949D01*
X010657Y000949D02*
X010657Y002870D01*
X011137Y003134D02*
X011137Y000949D01*
X012337Y000949D02*
X012337Y009870D01*
X012577Y009870D02*
X012577Y000949D01*
X012817Y000949D02*
X012817Y006593D01*
X012810Y006600D02*
X006707Y006600D01*
X006707Y006840D02*
X012747Y006840D01*
X012747Y007080D02*
X006707Y007080D01*
X006707Y007320D02*
X012747Y007320D01*
X012747Y007560D02*
X006707Y007560D01*
X006707Y007800D02*
X012747Y007800D01*
X012747Y008040D02*
X006707Y008040D01*
X006707Y008280D02*
X012747Y008280D01*
X012747Y008520D02*
X006707Y008520D01*
X006707Y008760D02*
X012747Y008760D01*
X012647Y009000D02*
X006707Y009000D01*
X006707Y009240D02*
X012664Y009240D01*
X012817Y009455D02*
X012817Y009870D01*
X013057Y009870D02*
X013057Y009535D01*
X012858Y009480D02*
X006707Y009480D01*
X006707Y009720D02*
X015428Y009720D01*
X015428Y009480D02*
X013296Y009480D01*
X013297Y009480D02*
X013297Y009870D01*
X013537Y009870D02*
X013537Y006807D01*
X013504Y006840D02*
X015428Y006840D01*
X015428Y006600D02*
X013744Y006600D01*
X013777Y006567D02*
X013777Y009933D01*
X013764Y009920D02*
X013857Y010013D01*
X014757Y010913D01*
X014807Y011034D01*
X014807Y012781D01*
X015077Y013051D01*
X015077Y013549D01*
X014726Y013899D01*
X014937Y014109D01*
X014937Y014260D01*
X014517Y014260D01*
X014517Y014340D01*
X014937Y014340D01*
X014937Y014491D01*
X014667Y014760D01*
X014517Y014760D01*
X014517Y014340D01*
X014437Y014340D01*
X014437Y014760D01*
X014286Y014760D01*
X014076Y014550D01*
X013725Y014900D01*
X013228Y014900D01*
X012977Y014649D01*
X012725Y014900D01*
X012344Y014900D01*
X011964Y015280D01*
X011842Y015330D01*
X003111Y015330D01*
X002990Y015280D01*
X002897Y015187D01*
X002701Y014990D01*
X002680Y014999D01*
X002434Y014999D01*
X002206Y014904D01*
X002057Y014756D01*
X001908Y014904D01*
X001680Y014999D01*
X001434Y014999D01*
X001206Y014904D01*
X001032Y014730D01*
X000937Y014502D01*
X000937Y014255D01*
X001032Y014028D01*
X001206Y013853D01*
X001330Y013802D01*
X001306Y013789D01*
X001244Y013745D01*
X001191Y013691D01*
X001147Y013630D01*
X001112Y013563D01*
X001089Y013491D01*
X001077Y013417D01*
X001077Y013407D01*
X001529Y013407D01*
X001529Y013350D01*
X001586Y013350D01*
X001586Y012899D01*
X001595Y012899D01*
X001670Y012911D01*
X001741Y012934D01*
X001809Y012968D01*
X001870Y013013D01*
X001923Y013066D01*
X001968Y013127D01*
X001980Y013152D01*
X002032Y013028D01*
X002206Y012853D01*
X002434Y012759D01*
X002680Y012759D01*
X002908Y012853D01*
X003057Y013002D01*
X003206Y012853D01*
X003434Y012759D01*
X003680Y012759D01*
X003908Y012853D01*
X004083Y013028D01*
X004177Y013255D01*
X004177Y004367D01*
X004250Y004440D02*
X000926Y004440D01*
X000926Y004200D02*
X004010Y004200D01*
X003937Y004127D02*
X003937Y012882D01*
X003877Y012840D02*
X006473Y012840D01*
X006553Y012760D02*
X007001Y012760D01*
X007317Y013076D01*
X007317Y013493D01*
X007547Y013263D01*
X007547Y012785D01*
X007508Y012746D01*
X007442Y012587D01*
X007442Y012413D01*
X007508Y012254D01*
X007630Y012131D01*
X007790Y012065D01*
X007963Y012065D01*
X008123Y012131D01*
X008246Y012254D01*
X008312Y012413D01*
X008312Y012587D01*
X008246Y012746D01*
X008207Y012785D01*
X008207Y013466D01*
X008157Y013587D01*
X007695Y014049D01*
X010261Y014049D01*
X010697Y013613D01*
X010790Y013520D01*
X010877Y013484D01*
X010877Y013051D01*
X011228Y012700D01*
X011725Y012700D01*
X011977Y012951D01*
X012228Y012700D01*
X012725Y012700D01*
X012977Y012951D01*
X013228Y012700D01*
X013247Y012700D01*
X013247Y011085D01*
X013208Y011046D01*
X013142Y010887D01*
X013142Y010713D01*
X013208Y010554D01*
X013232Y010530D01*
X006814Y010530D01*
X006812Y010532D01*
X006812Y010587D01*
X006746Y010746D01*
X006623Y010869D01*
X006463Y010935D01*
X006290Y010935D01*
X006130Y010869D01*
X006008Y010746D01*
X005942Y010587D01*
X005942Y010413D01*
X006008Y010254D01*
X006047Y010215D01*
X006047Y006237D01*
X001990Y002180D01*
X002005Y002209D01*
X002028Y002281D01*
X002040Y002356D01*
X002040Y002385D01*
X001569Y002385D01*
X001569Y002403D01*
X001551Y002403D01*
X001551Y002874D01*
X001523Y002874D01*
X001448Y002862D01*
X001376Y002839D01*
X001309Y002804D01*
X001248Y002760D01*
X000926Y002760D01*
X000926Y003000D02*
X002810Y003000D01*
X002737Y002927D02*
X002737Y012782D01*
X002877Y012840D02*
X003238Y012840D01*
X003217Y012849D02*
X003217Y003407D01*
X003290Y003480D02*
X000926Y003480D01*
X000926Y003240D02*
X003050Y003240D01*
X002977Y003167D02*
X002977Y012922D01*
X003457Y012759D02*
X003457Y003647D01*
X003530Y003720D02*
X000926Y003720D01*
X000926Y003960D02*
X003770Y003960D01*
X003697Y003887D02*
X003697Y012766D01*
X004105Y013080D02*
X005431Y013080D01*
X005377Y013134D02*
X005377Y013280D01*
X005377Y013320D01*
X004177Y013320D01*
X004177Y013255D02*
X004177Y013502D01*
X004149Y013570D01*
X005481Y013570D01*
X005377Y013466D01*
X005377Y013570D01*
X005471Y013560D02*
X004153Y013560D01*
X004177Y013570D02*
X004177Y013503D01*
X004417Y013570D02*
X004417Y004607D01*
X004490Y004680D02*
X000926Y004680D01*
X000926Y004920D02*
X004730Y004920D01*
X004657Y004847D02*
X004657Y013570D01*
X004897Y013570D02*
X004897Y005087D01*
X004970Y005160D02*
X000926Y005160D01*
X000926Y005400D02*
X005210Y005400D01*
X005137Y005327D02*
X005137Y013570D01*
X005377Y013466D02*
X005377Y013320D01*
X005757Y013320D01*
X005757Y013280D01*
X005797Y013280D01*
X005797Y013320D01*
X006177Y013320D01*
X006237Y013320D01*
X006177Y013320D02*
X006177Y013466D01*
X006073Y013570D01*
X006283Y013570D01*
X006237Y013524D01*
X006237Y013076D01*
X006553Y012760D01*
X006577Y012760D02*
X006577Y010888D01*
X006500Y010920D02*
X013156Y010920D01*
X013247Y011160D02*
X000926Y011160D01*
X000926Y010920D02*
X006254Y010920D01*
X006337Y010935D02*
X006337Y012976D01*
X006237Y013080D02*
X006123Y013080D01*
X006097Y013054D02*
X006097Y010835D01*
X005981Y010680D02*
X000926Y010680D01*
X000926Y010440D02*
X005942Y010440D01*
X006047Y010200D02*
X000926Y010200D01*
X000926Y009960D02*
X006047Y009960D01*
X006047Y009720D02*
X000926Y009720D01*
X000926Y009480D02*
X006047Y009480D01*
X006047Y009240D02*
X000926Y009240D01*
X000926Y009000D02*
X006047Y009000D01*
X006047Y008760D02*
X000926Y008760D01*
X000926Y008520D02*
X006047Y008520D01*
X006047Y008280D02*
X000926Y008280D01*
X000926Y008040D02*
X006047Y008040D01*
X006047Y007800D02*
X000926Y007800D01*
X000926Y007560D02*
X006047Y007560D01*
X006047Y007320D02*
X000926Y007320D01*
X000926Y007080D02*
X006047Y007080D01*
X006047Y006840D02*
X000926Y006840D01*
X000926Y006600D02*
X006047Y006600D01*
X006047Y006360D02*
X000926Y006360D01*
X000926Y006120D02*
X005930Y006120D01*
X005857Y006047D02*
X005857Y012900D01*
X005797Y012900D02*
X005943Y012900D01*
X006177Y013134D01*
X006177Y013280D01*
X005797Y013280D01*
X005797Y012900D01*
X005757Y012900D02*
X005757Y013280D01*
X005377Y013280D01*
X005377Y013134D02*
X005377Y005567D01*
X005450Y005640D02*
X000926Y005640D01*
X000926Y005880D02*
X005690Y005880D01*
X005617Y005807D02*
X005617Y012900D01*
X005611Y012900D02*
X005757Y012900D01*
X005611Y012900D02*
X005377Y013134D01*
X005617Y013280D02*
X005617Y013320D01*
X005857Y013320D02*
X005857Y013280D01*
X005797Y013080D02*
X005757Y013080D01*
X006097Y013280D02*
X006097Y013320D01*
X006097Y013546D02*
X006097Y013570D01*
X006083Y013560D02*
X006273Y013560D01*
X006817Y012760D02*
X006817Y010530D01*
X006773Y010680D02*
X013156Y010680D01*
X013057Y010530D02*
X013057Y012871D01*
X013088Y012840D02*
X012865Y012840D01*
X012817Y012791D02*
X012817Y010530D01*
X012577Y010530D02*
X012577Y012700D01*
X012337Y012700D02*
X012337Y010530D01*
X012097Y010530D02*
X012097Y012831D01*
X012088Y012840D02*
X011865Y012840D01*
X011857Y012831D02*
X011857Y010530D01*
X011617Y010530D02*
X011617Y012700D01*
X011377Y012700D02*
X011377Y010530D01*
X011137Y010530D02*
X011137Y012791D01*
X011088Y012840D02*
X008207Y012840D01*
X008257Y012719D02*
X008257Y014049D01*
X008497Y014049D02*
X008497Y010530D01*
X008257Y010530D02*
X008257Y012281D01*
X008290Y012360D02*
X013247Y012360D01*
X013247Y012120D02*
X008096Y012120D01*
X008017Y012087D02*
X008017Y010530D01*
X007777Y010530D02*
X007777Y012071D01*
X007658Y012120D02*
X000926Y012120D01*
X000926Y012360D02*
X007464Y012360D01*
X007537Y012225D02*
X007537Y010530D01*
X007297Y010530D02*
X007297Y013056D01*
X007317Y013080D02*
X007547Y013080D01*
X007537Y013273D02*
X007537Y012775D01*
X007547Y012840D02*
X007081Y012840D01*
X007057Y012816D02*
X007057Y010530D01*
X007057Y009870D02*
X007057Y000949D01*
X007297Y000949D02*
X007297Y009870D01*
X006817Y009870D02*
X006817Y000949D01*
X006577Y000949D02*
X006577Y005833D01*
X006564Y005820D02*
X006657Y005913D01*
X006707Y006034D01*
X006707Y009870D01*
X013642Y009870D01*
X013764Y009920D01*
X013804Y009960D02*
X015428Y009960D01*
X015428Y010200D02*
X014044Y010200D01*
X014017Y010173D02*
X014017Y006327D01*
X013984Y006360D02*
X015428Y006360D01*
X015428Y006120D02*
X014224Y006120D01*
X014257Y006087D02*
X014257Y010413D01*
X014284Y010440D02*
X015428Y010440D01*
X015428Y010680D02*
X014524Y010680D01*
X014497Y010653D02*
X014497Y005847D01*
X014464Y005880D02*
X015428Y005880D01*
X015428Y005640D02*
X014704Y005640D01*
X014737Y005607D02*
X014737Y010893D01*
X014759Y010920D02*
X015428Y010920D01*
X015428Y011160D02*
X014807Y011160D01*
X014807Y011400D02*
X015428Y011400D01*
X015428Y011640D02*
X014807Y011640D01*
X014807Y011880D02*
X015428Y011880D01*
X015428Y012120D02*
X014807Y012120D01*
X014807Y012360D02*
X015428Y012360D01*
X015428Y012600D02*
X014807Y012600D01*
X014865Y012840D02*
X015428Y012840D01*
X015428Y013080D02*
X015077Y013080D01*
X014977Y012951D02*
X014977Y005367D01*
X014944Y005400D02*
X015428Y005400D01*
X015428Y005160D02*
X015168Y005160D01*
X015207Y004920D02*
X015428Y004920D01*
X015428Y004680D02*
X015207Y004680D01*
X015207Y004440D02*
X015428Y004440D01*
X015428Y004200D02*
X015207Y004200D01*
X015207Y003960D02*
X015428Y003960D01*
X015428Y003720D02*
X015207Y003720D01*
X015207Y003480D02*
X015428Y003480D01*
X015428Y003240D02*
X015207Y003240D01*
X015207Y003000D02*
X015428Y003000D01*
X015428Y002760D02*
X015207Y002760D01*
X015207Y002520D02*
X015428Y002520D01*
X015428Y002280D02*
X015207Y002280D01*
X015207Y002040D02*
X015428Y002040D01*
X015424Y001800D02*
X015428Y001800D01*
X015217Y001984D02*
X015217Y015450D01*
X014977Y015451D02*
X014977Y013649D01*
X015065Y013560D02*
X015428Y013560D01*
X015428Y013800D02*
X014825Y013800D01*
X014737Y013889D02*
X014737Y013909D01*
X014867Y014040D02*
X015428Y014040D01*
X015428Y014280D02*
X014517Y014280D01*
X014497Y014340D02*
X014497Y015451D01*
X014257Y015451D02*
X014257Y014731D01*
X014437Y014520D02*
X014517Y014520D01*
X014437Y014340D02*
X014077Y014340D01*
X014077Y014260D01*
X014437Y014260D01*
X014437Y014340D01*
X014437Y014280D02*
X014077Y014280D01*
X014076Y014050D02*
X013825Y013800D01*
X014128Y013800D01*
X014227Y013899D02*
X013977Y013649D01*
X013825Y013800D01*
X014017Y013689D02*
X014017Y013991D01*
X014065Y014040D02*
X014086Y014040D01*
X014076Y014050D02*
X014227Y013899D01*
X014257Y014260D02*
X014257Y014340D01*
X014017Y014609D02*
X014017Y015451D01*
X013777Y015451D02*
X013777Y014849D01*
X013865Y014760D02*
X015428Y014760D01*
X015428Y014520D02*
X014907Y014520D01*
X014737Y014691D02*
X014737Y015451D01*
X015427Y015240D02*
X012004Y015240D01*
X012097Y015147D02*
X012097Y015451D01*
X011857Y015451D02*
X011857Y015324D01*
X011617Y015330D02*
X011617Y015451D01*
X011377Y015451D02*
X011377Y015330D01*
X011137Y015330D02*
X011137Y015451D01*
X010897Y015451D02*
X010897Y015330D01*
X010657Y015330D02*
X010657Y015451D01*
X010417Y015451D02*
X010417Y015330D01*
X010177Y015330D02*
X010177Y015451D01*
X009937Y015451D02*
X009937Y015330D01*
X009697Y015330D02*
X009697Y015451D01*
X009457Y015451D02*
X009457Y015330D01*
X009217Y015330D02*
X009217Y015451D01*
X008977Y015451D02*
X008977Y015330D01*
X008737Y015330D02*
X008737Y015451D01*
X008497Y015451D02*
X008497Y015330D01*
X008257Y015330D02*
X008257Y015451D01*
X008017Y015451D02*
X008017Y015330D01*
X007777Y015330D02*
X007777Y015451D01*
X007537Y015451D02*
X007537Y015330D01*
X007297Y015330D02*
X007297Y015451D01*
X007057Y015451D02*
X007057Y015330D01*
X006817Y015330D02*
X006817Y015451D01*
X006577Y015451D02*
X006577Y015330D01*
X006337Y015330D02*
X006337Y015451D01*
X006097Y015451D02*
X006097Y015330D01*
X005857Y015330D02*
X005857Y015451D01*
X005617Y015451D02*
X005617Y015330D01*
X005377Y015330D02*
X005377Y015451D01*
X005137Y015451D02*
X005137Y015330D01*
X004897Y015330D02*
X004897Y015451D01*
X004657Y015451D02*
X004657Y015330D01*
X004417Y015330D02*
X004417Y015451D01*
X004177Y015451D02*
X004177Y015330D01*
X003937Y015330D02*
X003937Y015451D01*
X003697Y015451D02*
X003697Y015330D01*
X003457Y015330D02*
X003457Y015451D01*
X003217Y015451D02*
X003217Y015330D01*
X002977Y015267D02*
X002977Y015451D01*
X002950Y015240D02*
X000927Y015240D01*
X000926Y015000D02*
X002710Y015000D01*
X002737Y015027D02*
X002737Y015451D01*
X002497Y015451D02*
X002497Y014999D01*
X002257Y014925D02*
X002257Y015451D01*
X002017Y015451D02*
X002017Y014796D01*
X002053Y014760D02*
X002062Y014760D01*
X001777Y014959D02*
X001777Y015451D01*
X001537Y015451D02*
X001537Y014999D01*
X001297Y014942D02*
X001297Y015451D01*
X001057Y015448D02*
X001057Y014755D01*
X001062Y014760D02*
X000926Y014760D01*
X000926Y014520D02*
X000945Y014520D01*
X000926Y014280D02*
X000937Y014280D01*
X000926Y014040D02*
X001026Y014040D01*
X001057Y014002D02*
X001057Y001980D01*
X001035Y001958D02*
X000940Y001730D01*
X000940Y001483D01*
X001035Y001255D01*
X001209Y001081D01*
X001437Y000986D01*
X001684Y000986D01*
X001912Y001081D01*
X002086Y001255D01*
X002148Y001404D01*
X006564Y005820D01*
X006624Y005880D02*
X013530Y005880D01*
X013537Y005873D02*
X013537Y000949D01*
X013297Y000949D02*
X013297Y006113D01*
X013290Y006120D02*
X006707Y006120D01*
X006707Y006360D02*
X013050Y006360D01*
X013057Y006353D02*
X013057Y000949D01*
X013777Y000949D02*
X013777Y005633D01*
X013770Y005640D02*
X006384Y005640D01*
X006337Y005593D02*
X006337Y000949D01*
X006097Y000949D02*
X006097Y005353D01*
X006144Y005400D02*
X014010Y005400D01*
X014017Y005393D02*
X014017Y000949D01*
X014257Y000949D02*
X014257Y001146D01*
X014284Y001080D02*
X008299Y001080D01*
X008257Y001030D02*
X008257Y000949D01*
X008497Y000949D02*
X008497Y009870D01*
X008737Y009870D02*
X008737Y000949D01*
X008977Y000949D02*
X008977Y009870D01*
X009217Y009870D02*
X009217Y000949D01*
X009457Y000949D02*
X009457Y009870D01*
X009697Y009870D02*
X009697Y000949D01*
X009937Y000949D02*
X009937Y009870D01*
X009937Y010530D02*
X009937Y014049D01*
X009697Y014049D02*
X009697Y010530D01*
X009457Y010530D02*
X009457Y014049D01*
X009217Y014049D02*
X009217Y010530D01*
X008977Y010530D02*
X008977Y014049D01*
X008737Y014049D02*
X008737Y010530D01*
X010177Y010530D02*
X010177Y014049D01*
X010270Y014040D02*
X007704Y014040D01*
X007777Y014049D02*
X007777Y013967D01*
X007944Y013800D02*
X010510Y013800D01*
X010417Y013893D02*
X010417Y010530D01*
X010657Y010530D02*
X010657Y013653D01*
X010750Y013560D02*
X008168Y013560D01*
X008017Y013727D02*
X008017Y014049D01*
X008207Y013320D02*
X010877Y013320D01*
X010877Y013080D02*
X008207Y013080D01*
X008306Y012600D02*
X013247Y012600D01*
X013907Y012600D02*
X014147Y012600D01*
X014147Y012781D02*
X014147Y011237D01*
X013949Y011039D01*
X013946Y011046D01*
X013907Y011085D01*
X013907Y012881D01*
X013977Y012951D01*
X014147Y012781D01*
X014088Y012840D02*
X013907Y012840D01*
X014017Y012911D02*
X014017Y011107D01*
X014070Y011160D02*
X013907Y011160D01*
X013907Y011400D02*
X014147Y011400D01*
X014147Y011640D02*
X013907Y011640D01*
X013907Y011880D02*
X014147Y011880D01*
X014147Y012120D02*
X013907Y012120D01*
X013907Y012360D02*
X014147Y012360D01*
X013247Y011880D02*
X000926Y011880D01*
X000926Y011640D02*
X013247Y011640D01*
X013247Y011400D02*
X000926Y011400D01*
X000926Y012600D02*
X007447Y012600D01*
X007490Y013320D02*
X007317Y013320D01*
X010557Y014670D02*
X010998Y014670D01*
X010877Y014549D01*
X010877Y014367D01*
X010585Y014658D01*
X010557Y014670D01*
X010657Y014670D02*
X010657Y014587D01*
X010724Y014520D02*
X010877Y014520D01*
X010897Y014569D02*
X010897Y014670D01*
X012244Y015000D02*
X015428Y015000D01*
X014737Y014340D02*
X014737Y014260D01*
X015077Y013320D02*
X015428Y013320D01*
X013537Y014900D02*
X013537Y015451D01*
X013297Y015451D02*
X013297Y014900D01*
X013088Y014760D02*
X012865Y014760D01*
X012817Y014809D02*
X012817Y015451D01*
X013057Y015451D02*
X013057Y014729D01*
X012577Y014900D02*
X012577Y015451D01*
X012337Y015451D02*
X012337Y014907D01*
X012977Y013951D02*
X012825Y013800D01*
X013128Y013800D01*
X012977Y013649D01*
X012825Y013800D01*
X012977Y013951D02*
X013128Y013800D01*
X013057Y013729D02*
X013057Y013871D01*
X010897Y013031D02*
X010897Y010530D01*
X011137Y009870D02*
X011137Y004266D01*
X011643Y003720D02*
X014547Y003720D01*
X014547Y002520D02*
X003264Y002520D01*
X003217Y002473D02*
X003217Y000949D01*
X002977Y000949D02*
X002977Y002233D01*
X003024Y002280D02*
X014547Y002280D01*
X014218Y001560D02*
X008382Y001560D01*
X008257Y001440D02*
X008257Y001360D01*
X008401Y001320D02*
X014207Y001320D01*
X010245Y003240D02*
X003984Y003240D01*
X003937Y003193D02*
X003937Y000949D01*
X002304Y001560D02*
X007372Y001560D01*
X007537Y001440D02*
X007537Y001360D01*
X007777Y001360D02*
X007777Y001440D01*
X007837Y001560D02*
X007917Y001560D01*
X008017Y001440D02*
X008017Y001360D01*
X007537Y000992D02*
X007537Y000949D01*
X007454Y001080D02*
X001910Y001080D01*
X001777Y001025D02*
X001777Y000949D01*
X001537Y000949D02*
X001537Y000986D01*
X001297Y000949D02*
X001297Y001044D01*
X001211Y001080D02*
X000928Y001080D01*
X001057Y000951D02*
X001057Y001233D01*
X001008Y001320D02*
X000926Y001320D01*
X000926Y001560D02*
X000940Y001560D01*
X000926Y001800D02*
X000969Y001800D01*
X001035Y001958D02*
X001179Y002102D01*
X001150Y002142D01*
X001115Y002209D01*
X001092Y002281D01*
X001080Y002356D01*
X001080Y002385D01*
X001551Y002385D01*
X001551Y002403D01*
X001080Y002403D01*
X001080Y002431D01*
X001092Y002506D01*
X001115Y002578D01*
X001150Y002645D01*
X001194Y002706D01*
X001248Y002760D01*
X001297Y002796D02*
X001297Y012975D01*
X001306Y012968D02*
X001373Y012934D01*
X001445Y012911D01*
X001519Y012899D01*
X001529Y012899D01*
X001529Y013350D01*
X001077Y013350D01*
X001077Y013341D01*
X001089Y013266D01*
X001112Y013194D01*
X001147Y013127D01*
X001191Y013066D01*
X001244Y013013D01*
X001306Y012968D01*
X001181Y013080D02*
X000926Y013080D01*
X000926Y013320D02*
X001080Y013320D01*
X001297Y013350D02*
X001297Y013407D01*
X001111Y013560D02*
X000926Y013560D01*
X000926Y013800D02*
X001327Y013800D01*
X001297Y013815D02*
X001297Y013783D01*
X001537Y013350D02*
X001537Y002874D01*
X001569Y002874D02*
X001569Y002403D01*
X002040Y002403D01*
X002040Y002431D01*
X002028Y002506D01*
X002005Y002578D01*
X001971Y002645D01*
X001926Y002706D01*
X001873Y002760D01*
X001812Y002804D01*
X001745Y002839D01*
X001673Y002862D01*
X001598Y002874D01*
X001569Y002874D01*
X001569Y002760D02*
X001551Y002760D01*
X001777Y002822D02*
X001777Y012952D01*
X001933Y013080D02*
X002010Y013080D01*
X002017Y013063D02*
X002017Y002542D01*
X002024Y002520D02*
X002330Y002520D01*
X002257Y002447D02*
X002257Y012832D01*
X002238Y012840D02*
X000926Y012840D01*
X001529Y013080D02*
X001586Y013080D01*
X001586Y013320D02*
X001529Y013320D01*
X002497Y012759D02*
X002497Y002687D01*
X002570Y002760D02*
X001873Y002760D01*
X001569Y002520D02*
X001551Y002520D01*
X001537Y002403D02*
X001537Y002385D01*
X001777Y002385D02*
X001777Y002403D01*
X002017Y002385D02*
X002017Y002403D01*
X002028Y002280D02*
X002090Y002280D01*
X002017Y002245D02*
X002017Y002207D01*
X002257Y001513D02*
X002257Y000949D01*
X002017Y000949D02*
X002017Y001186D01*
X002113Y001320D02*
X007353Y001320D01*
X001297Y002385D02*
X001297Y002403D01*
X001097Y002520D02*
X000926Y002520D01*
X000926Y002280D02*
X001093Y002280D01*
X001117Y002040D02*
X000926Y002040D01*
X013407Y007080D02*
X015428Y007080D01*
X015428Y007320D02*
X013407Y007320D01*
X013407Y007560D02*
X015428Y007560D01*
X015428Y007800D02*
X013407Y007800D01*
X013407Y008040D02*
X015428Y008040D01*
X015428Y008280D02*
X013407Y008280D01*
X013407Y008520D02*
X015428Y008520D01*
X015428Y008760D02*
X013407Y008760D01*
X013506Y009000D02*
X015428Y009000D01*
X015428Y009240D02*
X013490Y009240D01*
D18*
X013077Y009100D02*
X013077Y006800D01*
X014877Y005000D01*
X014877Y001400D01*
X006377Y006100D02*
X006377Y010500D01*
X006677Y010200D01*
X013577Y010200D01*
X014477Y011100D01*
X014477Y013300D01*
X013977Y013800D02*
X013177Y013800D01*
X012977Y013600D01*
X012977Y012100D01*
X011577Y010700D01*
X013577Y010800D02*
X013577Y013200D01*
X013477Y013300D01*
X013977Y013800D02*
X014377Y014200D01*
X014377Y014300D01*
X013277Y015400D01*
X001777Y015400D01*
X000977Y014600D01*
X000977Y013959D01*
X001557Y013379D01*
X002936Y012000D01*
X004477Y012000D01*
X005777Y013300D01*
X007377Y013900D02*
X002077Y013900D01*
X001727Y014250D01*
X001686Y014250D01*
X001557Y014379D01*
X002557Y014380D02*
X003177Y015000D01*
X011777Y015000D01*
X012477Y014300D01*
X011977Y013800D02*
X012477Y013300D01*
X011977Y013800D02*
X010977Y013800D01*
X010398Y014379D01*
X003557Y014379D01*
X002557Y014379D02*
X002557Y014380D01*
X007377Y013900D02*
X007877Y013400D01*
X007877Y012500D01*
X014377Y014300D02*
X014477Y014300D01*
X006377Y006100D02*
X001883Y001606D01*
X001560Y001606D01*
D19*
X006377Y010500D03*
X007877Y012500D03*
X011577Y010700D03*
X013077Y009100D03*
X013577Y010800D03*
M02*
