%
M48
M72
T01C0.0130
T02C0.0276
T03C0.0320
T04C0.0354
T05C0.0400
%
T01
X13077Y9100
X11577Y10700
X13577Y10800
X7877Y12500
X6377Y10500
T02
X1560Y1606
X1560Y2394
T03
X6777Y13300
X5777Y13300
T04
X11077Y3700
X3557Y13379
X3557Y14379
X2557Y14379
X1557Y14379
X1557Y13379
X2557Y13379
T05
X14877Y1400
X7877Y1400
X11477Y13300
X12477Y13300
X13477Y13300
X14477Y13300
X14477Y14300
X13477Y14300
X12477Y14300
X11477Y14300
M30
