G75*
%MOIN*%
%OFA0B0*%
%FSLAX24Y24*%
%IPPOS*%
%LPD*%
%AMOC8*
5,1,8,0,0,1.08239X$1,22.5*
%
%ADD10C,0.0098*%
%ADD11C,0.0100*%
%ADD12C,0.0700*%
%ADD13OC8,0.0660*%
%ADD14C,0.0800*%
%ADD15OC8,0.0540*%
%ADD16R,0.1000X0.1000*%
%ADD17C,0.0330*%
D10*
X001077Y000600D02*
X015277Y000600D01*
X015777Y001100D02*
X015777Y015300D01*
X015277Y015800D02*
X001077Y015800D01*
X000577Y015300D02*
X000577Y001100D01*
X000579Y001056D01*
X000585Y001013D01*
X000594Y000971D01*
X000607Y000929D01*
X000624Y000889D01*
X000644Y000850D01*
X000667Y000813D01*
X000694Y000779D01*
X000723Y000746D01*
X000756Y000717D01*
X000790Y000690D01*
X000827Y000667D01*
X000866Y000647D01*
X000906Y000630D01*
X000948Y000617D01*
X000990Y000608D01*
X001033Y000602D01*
X001077Y000600D01*
D11*
X015277Y000600D02*
X015321Y000602D01*
X015364Y000608D01*
X015406Y000617D01*
X015448Y000630D01*
X015488Y000647D01*
X015527Y000667D01*
X015564Y000690D01*
X015598Y000717D01*
X015631Y000746D01*
X015660Y000779D01*
X015687Y000813D01*
X015710Y000850D01*
X015730Y000889D01*
X015747Y000929D01*
X015760Y000971D01*
X015769Y001013D01*
X015775Y001056D01*
X015777Y001100D01*
X015777Y015300D02*
X015775Y015344D01*
X015769Y015387D01*
X015760Y015429D01*
X015747Y015471D01*
X015730Y015511D01*
X015710Y015550D01*
X015687Y015587D01*
X015660Y015621D01*
X015631Y015654D01*
X015598Y015683D01*
X015564Y015710D01*
X015527Y015733D01*
X015488Y015753D01*
X015448Y015770D01*
X015406Y015783D01*
X015364Y015792D01*
X015321Y015798D01*
X015277Y015800D01*
X001077Y015800D02*
X001033Y015798D01*
X000990Y015792D01*
X000948Y015783D01*
X000906Y015770D01*
X000866Y015753D01*
X000827Y015733D01*
X000790Y015710D01*
X000756Y015683D01*
X000723Y015654D01*
X000694Y015621D01*
X000667Y015587D01*
X000644Y015550D01*
X000624Y015511D01*
X000607Y015471D01*
X000594Y015429D01*
X000585Y015387D01*
X000579Y015344D01*
X000577Y015300D01*
D12*
X001557Y014379D03*
X002557Y014379D03*
X003557Y014379D03*
X003557Y013379D03*
X002557Y013379D03*
X001557Y013379D03*
X001560Y002394D03*
X001560Y001606D03*
D13*
X011477Y013300D03*
X012477Y013300D03*
X013477Y013300D03*
X014477Y013300D03*
X014477Y014300D03*
X013477Y014300D03*
X012477Y014300D03*
X011477Y014300D03*
D14*
X014877Y001400D03*
X007877Y001400D03*
D15*
X006777Y013300D03*
X005777Y013300D03*
D16*
X011077Y003700D03*
D17*
X013077Y009100D03*
X011577Y010700D03*
X013577Y010800D03*
X007877Y012500D03*
X006377Y010500D03*
M02*
